<svg width="11" height="20" viewBox="0 0 11 20" fill="none" xmlns="http://www.w3.org/2000/svg">
<path d="M3.47349 2.49634C3.47349 3.45553 4.24084 4.22288 5.20003 4.22288C6.17121 4.22288 6.91458 3.45553 6.91458 2.49634C6.91458 1.52516 6.17121 0.757812 5.20003 0.757812C4.24084 0.757812 3.47349 1.52516 3.47349 2.49634ZM0.5 18.3469C0.5 18.9344 0.919645 19.3301 1.55511 19.3301H9.14469C9.78015 19.3301 10.1998 18.9344 10.1998 18.3469C10.1998 17.7714 9.78015 17.3758 9.14469 17.3758H6.73473V8.2275C6.73473 7.58004 6.31508 7.14841 5.69161 7.14841H1.89082C1.26735 7.14841 0.835716 7.53208 0.835716 8.1076C0.835716 8.70709 1.26735 9.10276 1.89082 9.10276H4.5166V17.3758H1.55511C0.919645 17.3758 0.5 17.7714 0.5 18.3469Z" fill="#F9F9F9"/>
</svg>
