<svg width="22" height="22" viewBox="0 0 22 22" fill="none" xmlns="http://www.w3.org/2000/svg">
<path d="M19.6734 9.13177L11.5484 1.74818C11.3987 1.61115 11.203 1.53516 11 1.53516C10.797 1.53516 10.6013 1.61115 10.4516 1.74818L2.32656 9.13177C2.2448 9.20899 2.17932 9.30178 2.13397 9.40469C2.08862 9.5076 2.06432 9.61855 2.0625 9.73099V19.1255C2.0625 19.341 2.1481 19.5477 2.30048 19.7C2.45285 19.8524 2.65951 19.938 2.875 19.938H19.125C19.3405 19.938 19.5472 19.8524 19.6995 19.7C19.8519 19.5477 19.9375 19.341 19.9375 19.1255V9.73099C19.9357 9.61855 19.9114 9.5076 19.866 9.40469C19.8207 9.30178 19.7552 9.20899 19.6734 9.13177Z" stroke="#090909" stroke-width="3" stroke-linecap="round" stroke-linejoin="round"/>
</svg>
