<svg width="24" height="12" viewBox="0 0 24 12" fill="none" xmlns="http://www.w3.org/2000/svg">
<path d="M12.0049 5.46669C13.3137 5.46669 14.4399 4.29785 14.4399 2.77592C14.4399 1.27225 13.3076 0.158203 12.0049 0.158203C10.7082 0.158203 9.56978 1.29661 9.57587 2.78809C9.57587 4.29785 10.7021 5.46669 12.0049 5.46669ZM4.98573 5.60671C6.12413 5.60671 7.10426 4.58397 7.10426 3.26294C7.10426 1.95408 6.11805 0.986132 4.98573 0.986132C3.8595 0.986132 2.86112 1.97843 2.86721 3.27511C2.86721 4.58397 3.85342 5.60671 4.98573 5.60671ZM19.0057 5.60671C20.1441 5.60671 21.1303 4.58397 21.1303 3.27511C21.1303 1.97843 20.138 0.986132 19.0057 0.986132C17.8795 0.986132 16.8872 1.95408 16.8872 3.26294C16.8872 4.58397 17.8734 5.60671 19.0057 5.60671ZM1.59487 11.1039H6.21545C5.58233 10.1847 6.35547 8.334 7.67041 7.32344C6.98859 6.87295 6.11805 6.53813 4.98573 6.53813C2.24017 6.53813 0.523438 8.56533 0.523438 10.2516C0.523438 10.7995 0.821735 11.1039 1.59487 11.1039ZM22.4027 11.1039C23.1758 11.1039 23.4741 10.7995 23.4741 10.2516C23.4741 8.56533 21.7574 6.53813 19.0118 6.53813C17.8734 6.53813 17.0029 6.87295 16.3271 7.32344C17.636 8.334 18.4091 10.1847 17.776 11.1039H22.4027ZM8.18178 11.1039H15.8279C16.7837 11.1039 17.1246 10.83 17.1246 10.2942C17.1246 8.72361 15.1583 6.55639 12.0049 6.55639C8.84534 6.55639 6.87901 8.72361 6.87901 10.2942C6.87901 10.83 7.21992 11.1039 8.18178 11.1039Z" fill="#F9F9F9"/>
</svg>
