<svg width="10" height="18" viewBox="0 0 10 18" fill="none" xmlns="http://www.w3.org/2000/svg">
<path d="M4.70564 12.5963C5.32633 12.5963 5.61008 12.1706 5.61008 11.6031V11.3017C5.62782 10.1312 6.04457 9.6435 7.46331 8.66811C8.98846 7.63953 9.95498 6.45133 9.95498 4.73997C9.95498 2.07983 7.7914 0.554688 5.09579 0.554688C3.09182 0.554688 1.33613 1.50347 0.58242 3.21483C0.39621 3.63158 0.316406 4.03947 0.316406 4.37642C0.316406 4.88185 0.609022 5.23653 1.14992 5.23653C1.60214 5.23653 1.90362 4.97052 2.03663 4.53603C2.48885 2.85127 3.60611 2.21284 5.03372 2.21284C6.76281 2.21284 8.11948 3.18823 8.11948 4.73111C8.11948 5.99911 7.33031 6.70848 6.19531 7.50652C4.80317 8.47304 3.78345 9.51049 3.78345 11.0711V11.6297C3.78345 12.1972 4.0938 12.5963 4.70564 12.5963ZM4.70564 17.4466C5.41501 17.4466 5.97364 16.8791 5.97364 16.1874C5.97364 15.4869 5.41501 14.9283 4.70564 14.9283C4.014 14.9283 3.4465 15.4869 3.4465 16.1874C3.4465 16.8791 4.014 17.4466 4.70564 17.4466Z" fill="#F9F9F9"/>
</svg>
