<svg width="14" height="15" viewBox="0 0 14 15" fill="none" xmlns="http://www.w3.org/2000/svg">
<path d="M1.47405 14.4564C1.78351 14.4564 2.03403 14.2133 2.03403 13.9038V9.80708C2.21824 9.72603 2.91085 9.46077 3.99397 9.46077C6.72021 9.46077 8.42963 10.7944 11.0232 10.7944C12.1727 10.7944 12.6 10.6692 13.16 10.4186C13.6684 10.1902 14 9.80708 14 9.1292V1.65047C14 1.25259 13.6611 1.02417 13.2337 1.02417C12.8727 1.02417 12.1948 1.33364 10.9275 1.33364C8.33385 1.33364 6.63179 -7.62939e-06 3.89819 -7.62939e-06C2.74875 -7.62939e-06 2.31402 0.125252 1.75404 0.375771C1.24563 0.604185 0.914062 0.987332 0.914062 1.65784V13.9038C0.914062 14.2059 1.17195 14.4564 1.47405 14.4564Z" fill="#F9F9F9"/>
</svg>
