<svg width="16" height="16" viewBox="0 0 16 16" fill="none" xmlns="http://www.w3.org/2000/svg">
<path fill-rule="evenodd" clip-rule="evenodd" d="M2.42262 15.1575C2.47215 15.3837 2.61828 15.5657 2.80637 15.6776L2.80975 15.6795C3.17578 15.8873 3.72196 15.8611 4.04359 15.3988L13.4038 1.5616C13.5728 1.31951 13.6136 1.06157 13.5554 0.831194C13.4982 0.604906 13.3487 0.418173 13.1602 0.30608L13.1535 0.302473C12.9763 0.206249 12.7609 0.166926 12.5437 0.217353C12.3245 0.268244 12.1184 0.40695 11.9551 0.640281L2.59484 14.4377C2.42589 14.6777 2.37258 14.9289 2.42262 15.1575Z" fill="#F9F9F9"/>
<path fill-rule="evenodd" clip-rule="evenodd" d="M3.47868 8.00991C4.3945 8.00991 5.13953 7.62981 5.64983 6.94655C6.15539 6.26962 6.42009 5.31032 6.42009 4.16042C6.42009 3.01021 6.15325 2.05649 5.64619 1.38538C5.13448 0.708117 4.38953 0.334819 3.47868 0.334819C2.56377 0.334819 1.81687 0.710162 1.30422 1.38833C0.796187 2.06037 0.529297 3.01406 0.529297 4.16042C0.529297 5.31416 0.793936 6.27369 1.30076 6.94981C1.8124 7.63235 2.55954 8.00991 3.47868 8.00991ZM3.47868 6.50819C3.09508 6.50819 2.78577 6.32056 2.56235 5.93705C2.33343 5.54411 2.1983 4.9474 2.1983 4.16042C2.1983 3.38628 2.33513 2.79342 2.56507 2.40117C2.79004 2.01739 3.09991 1.82858 3.47868 1.82858C3.85778 1.82858 4.16533 2.0157 4.38806 2.39778C4.61606 2.78888 4.75108 3.38172 4.75108 4.16042C4.75108 4.94781 4.61781 5.54466 4.39069 5.93762C4.16918 6.32087 3.86199 6.50819 3.47868 6.50819Z" fill="#F9F9F9"/>
<path fill-rule="evenodd" clip-rule="evenodd" d="M12.5276 15.6729C13.4434 15.6729 14.1884 15.2928 14.6987 14.6106C15.2043 13.9347 15.4691 12.9774 15.4691 11.8313C15.4691 10.6773 15.2023 9.72157 14.6952 9.04943C14.1835 8.37109 13.4385 7.99776 12.5276 7.99776C11.6127 7.99776 10.8658 8.37313 10.3531 9.05238C9.84509 9.72546 9.57826 10.6811 9.57826 11.8313C9.57826 12.9812 9.84296 13.9388 10.3498 14.6139C10.8614 15.2953 11.6085 15.6729 12.5276 15.6729ZM12.5276 14.1791C12.1447 14.1791 11.8352 13.9901 11.6114 13.6051C11.3823 13.211 11.2473 12.6142 11.2473 11.8313C11.2473 11.053 11.3841 10.4603 11.6139 10.0693C11.8386 9.68692 12.1483 9.49949 12.5276 9.49949C12.9074 9.49949 13.2147 9.68524 13.4371 10.0659C13.665 10.4558 13.8 11.0485 13.8 11.8313C13.8 12.6146 13.6668 13.2116 13.4396 13.6057C13.2177 13.9904 12.9103 14.1791 12.5276 14.1791Z" fill="#F9F9F9"/>
</svg>
