<svg width="14" height="17" viewBox="0 0 14 17" fill="none" xmlns="http://www.w3.org/2000/svg">
<path d="M6.99546 16.6807C7.12714 16.6807 7.33288 16.6313 7.53862 16.5243C12.2212 14.0719 13.7273 12.8457 13.7273 9.89131V3.68621C13.7273 2.83856 13.3652 2.56699 12.6739 2.27895C11.711 1.88393 8.63315 0.76471 7.67852 0.435527C7.45632 0.36146 7.22589 0.320312 6.99546 0.320312C6.76504 0.320312 6.53461 0.36969 6.32064 0.435527C5.35778 0.74825 2.27992 1.89216 1.31706 2.27895C0.634003 2.55876 0.263672 2.83856 0.263672 3.68621V9.89131C0.263672 12.8457 1.85198 13.932 6.45231 16.5243C6.66628 16.6396 6.86379 16.6807 6.99546 16.6807Z" fill="#F9F9F9"/>
</svg>
